<svg width="47" height="22" viewBox="0 0 47 22" fill="none" xmlns="http://www.w3.org/2000/svg">
<path d="M4.58506 11.0009C4.58506 9.99342 4.63983 9.00499 4.74341 8.0534C1.72615 8.76433 0.00155188 10.0126 0 10.9997V11.0022C0.00155188 11.9884 1.72615 13.2375 4.74341 13.948C4.63989 12.996 4.58506 12.0084 4.58506 11.0009Z" fill="#FFFFE3"/>
<path d="M5.04691 15.9526C3.89588 15.7258 2.83117 15.4183 1.89591 15.0371C1.42149 14.8441 0.989321 14.6343 0.598937 14.4102C1.60875 17.1854 3.81426 19.391 6.58937 20.4008C6.36532 20.0106 6.15588 19.5781 5.96258 19.1035C5.58099 18.1681 5.27424 17.1035 5.04691 15.9526Z" fill="#FFFFE3"/>
<path d="M14.9528 6.0466C16.1041 6.27409 17.1686 6.58085 18.104 6.96209C18.5784 7.15573 19.0106 7.36535 19.4009 7.589C18.3912 4.81429 16.1857 2.60884 13.4103 1.59891C13.6347 1.98895 13.8442 2.42152 14.0375 2.89576C14.4187 3.83109 14.7259 4.89597 14.9528 6.0466Z" fill="#FFFFE3"/>
<path d="M12.9476 5.74358C12.2368 2.72483 10.9872 1 10.0005 1C9.0135 1 7.76436 2.72483 7.05342 5.74358C8.00478 5.63949 8.99304 5.58529 10.0005 5.58529C11.008 5.58529 11.9961 5.63949 12.9476 5.74358Z" fill="#FFFFE3"/>
<path d="M5.04691 6.04665C5.27418 4.89602 5.58099 3.83114 5.96252 2.89582C6.15582 2.42157 6.36526 1.98906 6.58931 1.59896C3.81426 2.60889 1.60875 4.81429 0.598937 7.58905C0.989321 7.36535 1.42155 7.15579 1.89591 6.96215C2.83123 6.5809 3.89588 6.27415 5.04691 6.04665Z" fill="#FFFFE3"/>
<path d="M15.2565 8.0534C15.3599 9.00504 15.4149 9.99342 15.4149 11.0009C15.4149 12.0084 15.3599 12.996 15.2565 13.9479C18.2736 13.2374 19.9982 11.9884 19.9998 11.0021V10.9997C19.9982 10.0126 18.2736 8.76433 15.2565 8.0534Z" fill="#FFFFE3"/>
<path d="M14.9528 15.9527C14.7259 17.1035 14.4187 18.1682 14.0375 19.1035C13.8442 19.5782 13.6347 20.0107 13.4103 20.4009C16.1857 19.3911 18.3912 17.1856 19.4009 14.4102C19.0106 14.6344 18.5784 14.8442 18.104 15.0371C17.1686 15.4184 16.1042 15.7259 14.9528 15.9527Z" fill="#FFFFE3"/>
<path d="M7.05342 16.2565C7.76436 19.2748 9.01356 21 10.0005 21C10.9872 21 12.2368 19.2748 12.9475 16.2565C11.996 16.3599 11.008 16.415 10.0005 16.415C8.99304 16.415 8.00478 16.3599 7.05342 16.2565Z" fill="#FFFFE3"/>
<path d="M13.3028 7.69808C12.2973 7.56543 11.1939 7.48961 10.0011 7.48961C8.80824 7.48961 7.70485 7.56543 6.69929 7.69808C6.56692 8.70364 6.49088 9.80703 6.49088 10.9998C6.49088 12.1924 6.56692 13.2958 6.69929 14.3012C7.70485 14.434 8.80824 14.51 10.0011 14.51C11.1939 14.51 12.2973 14.434 13.3028 14.3012C13.4352 13.2959 13.5112 12.1924 13.5112 10.9998C13.5112 9.80703 13.4351 8.70364 13.3028 7.69808Z" fill="#FFFFE3"/>
<path fill-rule="evenodd" clip-rule="evenodd" d="M34.7965 5.4796C34.5162 5.51706 34.0092 5.64242 33.6698 5.7581C33.3305 5.87378 32.7693 6.14515 32.4226 6.36122C32.0736 6.57882 31.5501 7.01581 31.2489 7.34103C30.9337 7.68153 30.575 8.18876 30.3947 8.54879C30.2239 8.89015 30.0264 9.39729 29.956 9.6757C29.8855 9.95412 29.8284 10.5083 29.8291 10.9073C29.8298 11.3062 29.8867 11.8716 29.9556 12.1638C30.0244 12.4559 30.2115 12.9545 30.3713 13.2718C30.5312 13.5891 30.8193 14.048 31.0119 14.2915C31.2043 14.5351 31.5804 14.906 31.8476 15.116C32.1148 15.326 32.5894 15.6324 32.9024 15.797C33.2153 15.9617 33.7661 16.1717 34.1263 16.2639C34.4865 16.3561 34.9853 16.4314 35.2347 16.4314C35.4852 16.4314 35.6883 16.2283 35.6883 15.9778V15.4066C35.6883 15.132 35.4821 14.9012 35.2092 14.8703L35.1713 14.866C34.8868 14.8339 34.4129 14.733 34.1181 14.6419C33.8232 14.5509 33.344 14.3175 33.0533 14.1233C32.736 13.9114 32.3758 13.5682 32.1523 13.2645C31.9253 12.956 31.7101 12.5289 31.6011 12.1697C31.4567 11.6943 31.4287 11.4203 31.4557 10.7478C31.486 9.99208 31.5185 9.85542 31.8058 9.27396C32.0257 8.82908 32.2653 8.50267 32.5889 8.20676C32.8455 7.97234 33.256 7.6834 33.5012 7.56457C33.7465 7.44575 34.1749 7.29006 34.4533 7.21855C34.7317 7.14712 35.1236 7.0886 35.3239 7.0886C35.5251 7.0886 35.6883 6.92547 35.6883 6.72423V6.23926C35.6883 5.41191 35.6834 5.39017 35.4972 5.4007C35.3921 5.40664 35.0768 5.44215 34.7965 5.4796ZM40.572 5.51706C40.245 5.57864 39.8128 5.68897 39.6115 5.76226C39.4102 5.83556 38.974 6.03822 38.642 6.21267C38.2812 6.40225 37.8125 6.75311 37.4763 7.0852C37.1671 7.39071 36.7748 7.87034 36.6047 8.15113C36.4345 8.43184 36.1913 8.96693 36.0643 9.34021C35.8713 9.90724 35.8331 10.1655 35.8319 10.9107C35.831 11.5135 35.8786 11.966 35.9788 12.307C36.0604 12.5845 36.2535 13.0626 36.4081 13.3695C36.5627 13.6765 36.843 14.1137 37.031 14.3412C37.219 14.5688 37.5767 14.9241 37.8258 15.1308C38.0749 15.3374 38.5845 15.6558 38.9583 15.838C39.332 16.0204 39.8862 16.2279 40.1898 16.2992C40.4934 16.3705 40.9426 16.4294 41.1878 16.4301C41.4338 16.4308 41.6337 16.2315 41.6337 15.9855V15.1361C41.6337 15.0069 41.5293 14.9019 41.4001 14.9011C41.2717 14.9003 40.9087 14.845 40.5936 14.7782C40.2785 14.7115 39.7715 14.5379 39.4669 14.3925C39.1513 14.2419 38.7121 13.9319 38.4455 13.6716C38.1459 13.3791 37.8899 13.0221 37.7335 12.6786C37.5991 12.3836 37.4655 12.0371 37.4365 11.9086C37.4095 11.7889 37.5005 11.6751 37.6232 11.6751H41.094C41.392 11.6751 41.6337 11.4334 41.6337 11.1353V10.7709C41.6337 10.4728 41.392 10.2312 41.094 10.2312H37.6229C37.5001 10.2312 37.4087 10.1176 37.4351 9.9976C37.4633 9.8691 37.5985 9.52868 37.7355 9.24092C37.8992 8.89711 38.1527 8.56238 38.4754 8.26418C38.7453 8.01473 39.1812 7.70573 39.4439 7.57765C39.7066 7.44957 40.1428 7.28709 40.4133 7.21668C40.6837 7.14627 41.069 7.0886 41.2693 7.0886C41.4706 7.0886 41.6337 6.92547 41.6337 6.72423V5.62361C41.6337 5.4958 41.5279 5.39337 41.4001 5.39756C41.2717 5.4018 40.899 5.45557 40.572 5.51706Z" fill="#FFFFE3"/>
<path fill-rule="evenodd" clip-rule="evenodd" d="M36 20.9C41.4676 20.9 45.9 16.4676 45.9 11C45.9 5.53238 41.4676 1.1 36 1.1C30.5324 1.1 26.1 5.53238 26.1 11C26.1 16.4676 30.5324 20.9 36 20.9ZM36 22C42.0751 22 47 17.0751 47 11C47 4.92487 42.0751 0 36 0C29.9249 0 25 4.92487 25 11C25 17.0751 29.9249 22 36 22Z" fill="#FFFFE3"/>
</svg>
