<svg width="57" height="30" viewBox="0 0 57 30" fill="none" xmlns="http://www.w3.org/2000/svg">
<path d="M0.386583 29L0.386583 0.631331H8.07514C10.1383 0.631331 11.6373 1.13638 12.5722 2.14648C13.5178 3.14583 13.9906 4.80067 13.9906 7.11099V8.35212C13.9906 9.68459 13.7489 10.7645 13.2653 11.592C12.7925 12.4194 12.0672 12.962 11.0893 13.2199C12.368 13.5423 13.2223 14.2999 13.6522 15.4926C14.0927 16.6747 14.313 18.12 14.313 19.8285C14.313 21.6661 14.1411 23.2725 13.7972 24.648C13.4534 26.0234 12.8301 27.0926 11.9275 27.8556C11.0248 28.6185 9.74072 29 8.07514 29H0.386583ZM5.93137 11.3179H7.0919C7.61844 11.3179 7.95693 11.1138 8.10737 10.7054C8.25781 10.2971 8.33303 9.80817 8.33303 9.23864V6.38566C8.33303 5.47227 7.93007 5.01558 7.12414 5.01558H5.93137V11.3179ZM6.49552 24.0032C7.96768 24.0032 8.70376 23.3048 8.70376 21.9078L8.70376 18.3617C8.70376 17.5558 8.58019 16.9218 8.33303 16.4598C8.09663 15.9869 7.64531 15.7505 6.97908 15.7505H5.93137V23.971C6.16777 23.9925 6.35582 24.0032 6.49552 24.0032ZM16.2488 29L16.2488 0.631331H21.9225L21.9225 24.1644H27.7574V29H16.2488ZM28.6455 29L35.2541 0.518501H41.1213L34.4966 29H28.6455ZM49.6173 29.2579C47.0276 29.2579 45.1578 28.6132 44.0081 27.3237C42.869 26.0342 42.2995 23.9818 42.2995 21.1664V18.394H47.9087V21.9401C47.9087 22.5956 48.0055 23.1114 48.1989 23.4875C48.403 23.8528 48.7523 24.0355 49.2466 24.0355C49.7624 24.0355 50.117 23.885 50.3104 23.5842C50.5146 23.2833 50.6167 22.789 50.6167 22.1013C50.6167 21.2309 50.5307 20.5055 50.3588 19.9252C50.1868 19.3342 49.886 18.7755 49.4561 18.2489C49.037 17.7116 48.4514 17.0884 47.6992 16.3792L45.1525 13.9614C43.2505 12.1668 42.2995 10.1144 42.2995 7.80409C42.2995 5.38631 42.8583 3.54342 43.9758 2.27542C45.1041 1.00743 46.7321 0.373434 48.8597 0.373434C51.4602 0.373434 53.3031 1.06653 54.3884 2.45273C55.4845 3.83892 56.0325 5.94508 56.0325 8.7712H50.2621V6.82086C50.2621 6.43401 50.1492 6.13313 49.9236 5.91822C49.7087 5.70331 49.4131 5.59585 49.037 5.59585C48.5857 5.59585 48.2526 5.7248 48.0377 5.98269C47.8335 6.22984 47.7314 6.55222 47.7314 6.94981C47.7314 7.3474 47.8389 7.77723 48.0538 8.23929C48.2687 8.70136 48.6932 9.23327 49.3272 9.83503L52.5992 12.9781C53.2547 13.6014 53.8565 14.2623 54.4045 14.9607C54.9526 15.6485 55.3931 16.4544 55.7262 17.3785C56.0594 18.2919 56.2259 19.4095 56.2259 20.7312C56.2259 23.3961 55.7316 25.4862 54.743 27.0013C53.7652 28.5057 52.0566 29.2579 49.6173 29.2579Z" fill="white"/>
</svg>
