<svg width="67" height="29" viewBox="0 0 67 29" fill="none" xmlns="http://www.w3.org/2000/svg">
<path d="M45.3901 0.519404L38.651 27.9179C38.6345 28.0003 38.6181 28.0764 38.604 28.1415C38.5812 28.2469 38.5646 28.324 38.5646 28.3507C38.5646 28.5239 38.651 28.697 38.7806 28.8269C38.9102 28.9567 39.0398 29 39.2126 29C39.5582 29 39.7742 28.7836 39.9038 28.3507L46.5996 1.03881C46.6111 0.992983 46.6225 0.950192 46.6331 0.910433L46.6335 0.909041C46.6629 0.799313 46.686 0.712612 46.686 0.649253C46.686 0.432835 46.6428 0.302986 46.5132 0.173135C46.3836 0.043283 46.2108 0 46.038 0C45.6925 0 45.4765 0.173135 45.3901 0.519404Z" fill="black"/>
<path d="M62.1658 6.21483H61.9859V5.73685H62.1658C62.2521 5.73685 62.3158 5.75747 62.357 5.79871C62.402 5.83994 62.4245 5.89618 62.4245 5.96741C62.4245 6.03863 62.402 6.09862 62.357 6.14735C62.3158 6.19234 62.2521 6.21483 62.1658 6.21483Z" fill="black"/>
<path fill-rule="evenodd" clip-rule="evenodd" d="M61.1143 6.72655C61.058 6.58784 61.0299 6.43976 61.0299 6.28231C61.0299 6.12486 61.058 5.97865 61.1143 5.84369C61.1743 5.70499 61.2549 5.58502 61.3561 5.4838C61.4573 5.38258 61.5754 5.30386 61.7103 5.24762C61.8491 5.18764 61.9971 5.15765 62.1546 5.15765C62.312 5.15765 62.4582 5.18764 62.5932 5.24762C62.7319 5.30386 62.8519 5.38258 62.9531 5.4838C63.0543 5.58502 63.133 5.70499 63.1893 5.84369C63.2493 5.97865 63.2793 6.12486 63.2793 6.28231C63.2793 6.43976 63.2493 6.58784 63.1893 6.72655C63.133 6.86151 63.0543 6.9796 62.9531 7.08082C62.8519 7.18204 62.7319 7.26264 62.5932 7.32262C62.4582 7.37885 62.312 7.40697 62.1546 7.40697C61.9971 7.40697 61.8491 7.37885 61.7103 7.32262C61.5754 7.26264 61.4573 7.18204 61.3561 7.08082C61.2549 6.9796 61.1743 6.86151 61.1143 6.72655ZM62.3908 7.09207H62.6944V6.58597C62.6944 6.53348 62.6794 6.48475 62.6494 6.43976C62.6194 6.39103 62.5707 6.36291 62.5032 6.35541V6.32167C62.5895 6.28419 62.6476 6.23358 62.6776 6.16984C62.7113 6.10237 62.7282 6.01989 62.7282 5.92242C62.7282 5.80246 62.6851 5.69749 62.5988 5.60751C62.5164 5.51754 62.3908 5.47256 62.2221 5.47256H61.6822V7.09207H61.9859V6.48475H62.2502C62.2952 6.48475 62.3289 6.49787 62.3514 6.52411C62.3776 6.55035 62.3908 6.58409 62.3908 6.62533V7.09207Z" fill="black"/>
<path fill-rule="evenodd" clip-rule="evenodd" d="M49.3667 3.67911C48.8916 3.67911 48.4596 3.85224 48.114 4.24179C47.7252 4.63134 47.5524 5.06418 47.5524 5.49701C47.5524 5.88657 47.6388 6.18955 47.7684 6.40597C47.898 6.62239 48.114 6.96866 48.4596 7.40149L61.0737 22.7239C61.2897 23.0269 61.4193 23.2866 61.4193 23.4164C61.4193 23.5896 61.3761 23.7194 61.2465 23.8493C61.1169 23.9791 60.9873 24.0657 60.7713 24.0657C60.6417 24.0657 60.4257 23.9791 60.1233 23.806L49.0644 17.4C48.6756 17.1836 48.3732 17.097 48.2004 17.097C48.0276 17.097 47.898 17.1403 47.7684 17.2701C47.6388 17.4 47.5524 17.5299 47.5524 17.7463V24.6284C47.5524 24.8448 47.6388 24.9746 47.7684 25.1045C47.898 25.2343 48.0276 25.3209 48.2436 25.3209H60.6849C61.7649 25.3209 62.7585 25.0179 63.6657 24.4552C64.5729 23.8925 65.264 23.1567 65.7824 22.2478C66.3008 21.3388 66.56 20.4731 66.56 19.6075C66.56 18.006 66.2576 16.794 65.6096 15.9284C64.9616 15.0627 64.0977 14.3269 63.0177 13.7642L49.3667 6.3194C48.978 6.10298 48.8052 5.84328 48.8052 5.5403C48.8052 5.41045 48.8916 5.23731 49.0212 5.10746C49.1507 4.97761 49.2803 4.93433 49.4531 4.93433C49.6259 4.93433 49.8419 4.97761 50.1011 5.10746L63.7521 10.7776C64.1409 10.9507 64.4433 11.0373 64.5728 11.0373C64.7456 11.0373 64.9184 10.994 65.048 10.8642C65.1776 10.7343 65.2208 10.6045 65.2208 10.3881V4.50149C65.2208 4.28507 65.1776 4.06866 65.048 3.89552C64.9184 3.76567 64.7456 3.67911 64.5728 3.67911H49.3667ZM60.8668 5.74247C60.7956 5.91117 60.76 6.09112 60.76 6.28231C60.76 6.4735 60.7956 6.65532 60.8668 6.82777C60.9418 6.99647 61.0412 7.14455 61.1649 7.27201C61.2923 7.39572 61.4404 7.49507 61.6091 7.57005C61.7816 7.64128 61.9634 7.67689 62.1546 7.67689C62.3458 7.67689 62.5257 7.64128 62.6944 7.57005C62.8669 7.49507 63.0149 7.39572 63.1387 7.27201C63.2661 7.14455 63.3655 6.99647 63.4367 6.82777C63.5117 6.65532 63.5492 6.4735 63.5492 6.28231C63.5492 6.09112 63.5117 5.91117 63.4367 5.74247C63.3655 5.57003 63.2661 5.42195 63.1387 5.29823C63.0149 5.17077 62.8669 5.07143 62.6944 5.0002C62.5257 4.92522 62.3458 4.88773 62.1546 4.88773C61.9634 4.88773 61.7816 4.92522 61.6091 5.0002C61.4404 5.07143 61.2923 5.17077 61.1649 5.29823C61.0412 5.42195 60.9418 5.57003 60.8668 5.74247Z" fill="black"/>
<path d="M21.9593 3.85224C22.0889 3.72239 22.2184 3.67911 22.4344 3.67911H29.3463C29.5623 3.67911 29.6919 3.72239 29.8215 3.85224C29.9511 3.98209 29.9943 4.15522 29.9943 4.32836C29.9943 4.45821 29.9511 4.63134 29.8647 4.84776L23.2984 22.594C23.2552 22.6806 23.212 22.8104 23.1688 22.9836C23.0824 23.1567 23.0392 23.2866 23.0392 23.4164C23.0392 23.5896 23.1256 23.7194 23.2552 23.8493C23.3848 23.9791 23.5144 24.0657 23.6872 24.0657C23.8168 24.0657 24.076 23.9791 24.4648 23.7627L36.2582 17.4433C36.647 17.2269 36.9494 17.097 37.1222 17.097C37.295 17.097 37.4677 17.1403 37.5973 17.2701C37.7269 17.4 37.7701 17.5299 37.7701 17.7463V24.6716C37.7701 24.8881 37.7269 25.0179 37.5973 25.1478C37.4677 25.2776 37.295 25.3209 37.1222 25.3209H23.6872C23.1688 25.3209 22.7368 25.1478 22.348 24.7582C21.9593 24.3687 21.7865 23.9358 21.7865 23.4164V4.32836C21.7865 4.15522 21.8297 3.98209 21.9593 3.85224Z" fill="black"/>
<path fill-rule="evenodd" clip-rule="evenodd" d="M2.16797 3.67911C1.73598 3.67911 1.34718 3.85224 1.00159 4.19851C0.612799 4.54478 0.440002 4.93433 0.440002 5.41045V23.5896C0.440002 24.0224 0.612799 24.4119 0.958392 24.7582C1.26079 25.1478 1.69278 25.3209 2.21117 25.3209H14.8685C16.0781 25.3209 17.1149 25.0179 18.0221 24.4552C18.9292 23.8925 19.5772 23.1567 20.0524 22.2478C20.5276 21.3388 20.7436 20.3866 20.7436 19.3045C20.7436 18.1358 20.398 17.097 19.75 16.1448C19.102 15.1925 18.1085 14.5 16.8125 14.0239L10.851 11.903C10.5054 11.7731 10.3326 11.5567 10.3326 11.2104C10.3326 10.9075 10.5054 10.7343 10.851 10.6045L19.102 7.35821C19.534 7.18507 19.8364 6.92537 20.0524 6.5791C20.2252 6.23284 20.3116 5.88657 20.3116 5.5403C20.3116 5.06418 20.1388 4.63134 19.75 4.24179C19.3612 3.85224 18.9292 3.67911 18.4108 3.67911H2.16797ZM10.5918 23.8493L1.90877 11.7731C1.77918 11.5567 1.69278 11.3403 1.69278 11.2104C1.69278 10.9075 1.90877 10.691 2.29757 10.5612L18.1085 4.97761C18.3676 4.89104 18.5836 4.89104 18.7996 5.0209C18.9724 5.15075 19.0588 5.32388 19.0588 5.5403C19.0588 5.88657 18.886 6.10298 18.5404 6.23284L10.419 9.43582C9.94381 9.65224 9.59822 9.91194 9.38223 10.2149C9.16623 10.5612 9.07983 10.9075 9.07983 11.2104C9.07983 11.5567 9.16623 12.0328 9.29583 12.5955L11.715 22.8104C11.8014 23.1134 11.8446 23.3731 11.8446 23.5896C11.8446 23.7627 11.8014 23.8925 11.6718 24.0224C11.5422 24.1522 11.4126 24.2388 11.2398 24.2388C11.0238 24.2388 10.8078 24.109 10.5918 23.8493Z" fill="black"/>
</svg>
