<svg width="58" height="22" viewBox="0 0 58 22" fill="none" xmlns="http://www.w3.org/2000/svg">
<path fill-rule="evenodd" clip-rule="evenodd" d="M47 21C52.5228 21 57 16.5228 57 11C57 5.47715 52.5228 1 47 1C41.4772 1 37 5.47715 37 11C37 16.5228 41.4772 21 47 21ZM47 22C53.0751 22 58 17.0751 58 11C58 4.92487 53.0751 0 47 0C40.9249 0 36 4.92487 36 11C36 17.0751 40.9249 22 47 22Z" fill="#FFFFE3"/>
<path d="M45.1088 13.7377C45.1541 12.1481 46.0244 13.3602 46.4211 10.2195C46.5265 9.38239 46.36 8.12789 46.0023 7.27952C45.8633 6.94989 45.5338 7.41607 45.5101 7.77302C45.4874 8.11378 45.0977 7.92751 44.9242 7.63336C44.5918 7.06982 44.34 6.37952 44.6298 5.63933C44.7836 5.24649 44.5637 4.7808 44.1779 4.95158C43.0956 5.43073 42.1426 6.56932 41.8161 7.72501C41.7991 7.78473 41.7169 7.82579 41.6935 7.77566C41.5534 7.483 41.1251 7.40922 41.017 7.71515C40.6109 8.86497 40.6769 9.96363 41.3852 11.1379C41.4309 11.2138 41.5006 11.2831 41.5294 11.3668C41.5487 11.4228 41.5358 11.4792 41.4093 11.4827C41.1486 11.4896 40.7948 11.7103 40.8796 11.9569C41.3226 13.2439 42.4709 14.0675 43.314 14.119C43.8035 14.1494 44.0472 14.4896 44.0088 14.7141C43.9784 14.8943 44.1271 15.0068 44.2578 14.9727C44.9158 14.7988 45.1003 14.0566 45.1088 13.7377Z" fill="#FFFFE3"/>
<path d="M44.6895 13.5578C44.5896 13.8794 44.2121 13.8836 43.9498 13.6723C43.5656 13.3629 43.1088 13.2022 42.7657 13.0427C42.5101 12.9228 42.3447 12.735 42.2213 12.4876C42.0966 12.2375 42.3039 11.9418 42.5748 12.0101C42.8808 12.0872 43.2041 12.0651 43.12 11.7609C43.0203 11.4002 42.7986 10.9956 42.5812 10.7328C42.51 10.6465 42.4559 10.5572 42.4161 10.4662C42.2459 10.0778 42.9847 10.0153 43.4072 10.0513C44.1811 10.1181 44.6965 10.5161 44.7814 11.1064C44.8156 11.3444 45.0251 11.4383 45.0649 11.2012C45.0996 10.9947 45.3404 10.9177 45.4418 11.1009C45.6379 11.455 45.6751 11.8677 45.3652 12.2909C44.9182 12.9023 44.7778 13.2737 44.6895 13.5578Z" fill="#FFFFE3"/>
<path d="M47.3019 14.499L53.1382 8.38346C53.232 8.2851 53.2792 8.15121 53.2677 8.01574L53.2076 7.30921C53.1878 7.07685 53.0021 6.89331 52.7695 6.87628L52.0512 6.82369C51.9086 6.81325 51.7689 6.86767 51.671 6.97182L45.771 13.2454C45.161 13.9061 45.346 14.5353 45.0591 14.883C44.8591 15.1234 44.6112 15.2173 44.1969 15.2333C43.9564 15.2424 43.6834 15.3559 43.4914 15.5607C43.0931 15.983 43.1133 16.6485 43.5357 17.0457C43.9585 17.4435 44.6245 17.4233 45.0218 17.0004C45.2143 16.7967 45.3113 16.5349 45.3049 16.2758C45.2959 15.8609 45.3742 15.6071 45.6019 15.3938C45.932 15.0851 46.6801 15.1496 47.3019 14.499Z" fill="#FFFFE3"/>
<path d="M52.896 7.62917C52.8814 7.39016 52.691 7.19949 52.452 7.18459L52.1776 7.16748C52.0368 7.1587 51.8995 7.21299 51.8028 7.31562L46.1187 13.348C46.0329 13.439 45.9866 13.5601 45.9897 13.6851L45.9963 13.9521C46.0029 14.2189 46.2283 14.4278 46.4949 14.4141L46.8761 14.3945C46.9978 14.3883 47.1125 14.3354 47.1963 14.2469L52.7887 8.33868C52.8789 8.2433 52.9256 8.11475 52.9176 7.98366L52.896 7.62917Z" fill="#FFFFE3"/>
<path d="M45.9281 14.483C45.9905 14.5545 46.101 14.5567 46.1663 14.4878L52.9636 7.30712C53.0152 7.25267 53.0223 7.16983 52.9807 7.10743C52.9234 7.02144 52.8011 7.01099 52.7301 7.08601L45.9324 14.2664C45.8754 14.3266 45.8735 14.4204 45.9281 14.483Z" fill="#FFFFE3"/>
<path d="M25.269 9.18419V4.89817H31.843C32.0773 4.67195 32.2222 4.36091 32.2222 4.02155C32.2222 3.67819 32.0773 3.36714 31.843 3.14095H25.269V1H12.7943C11.84 2.57139 11.2392 4.36094 11.1114 6.2757H9.0706C6.70598 6.2757 4.78452 8.09758 4.78452 10.3395C4.78452 11.0788 4.99329 11.8059 5.39377 12.4361L6.40353 14.0479C6.72733 14.5892 6.89775 15.2113 6.89775 15.8374C6.89775 17.837 5.18506 19.4609 3.07183 19.4609H0V21H3.07183C6.07549 21 8.52101 18.6853 8.52101 15.8374C8.52101 14.9043 8.25686 13.9873 7.7541 13.1915L6.78697 11.6444C6.5356 11.2525 6.40352 10.8001 6.40352 10.3396C6.40352 8.94592 7.6007 7.81483 9.07062 7.81483H11.1114C11.2392 9.72554 11.84 11.5151 12.7943 13.0865H25.269V10.9455H31.843C32.0774 10.7153 32.2222 10.4042 32.2222 10.0649C32.2222 9.7215 32.0774 9.4145 31.843 9.18426L25.269 9.18419Z" fill="#FFFFE3"/>
</svg>
